# xmcd CD database file
#
# Track frame offsets:
#	150
#	21225
#	40362
#	62675
#	88260
#	113887
#	135077
#	155742
#	176997
#	201407
#	223130
#	242215
#
# Disc length: 3524 seconds
#
# Revision: 0
# Processed by: cddbd v1.5.1PL2 Copyright (c) Steve Scherf et al.
# Submitted via: CDex 1.51
#
DISCID=b50dc20c
DTITLE=Rolf Ericson - Stockholm sweetnin'
DYEAR=1985
DGENRE=Jazz
TTITLE0=Bird song
TTITLE1=Squeeze me
TTITLE2=Evelyn
TTITLE3=Broadway
TTITLE4=Little man, you've had a busy day
TTITLE5=Stockholm sweetnin'
TTITLE6=Nancy with the laughing face
TTITLE7=Mel's bells
TTITLE8=In a sentimental mood
TTITLE9=Without a song
TTITLE10=What am I here for
TTITLE11=Thou swell
EXTD=YEAR: 1985
EXTT0=
EXTT1=
EXTT2=
EXTT3=
EXTT4=
EXTT5=
EXTT6=
EXTT7=
EXTT8=
EXTT9=
EXTT10=
EXTT11=
PLAYORDER=
